<?xml version="1.0" encoding="UTF-8"?>
<svg version="1.1" viewBox="0 0 2048 1153" width="666" height="375" xmlns="http://www.w3.org/2000/svg">
<path transform="translate(1211,116)" d="m0 0 9 1 8 4h12l4 2 3 6v14l3 14-3 5-12 6-4 8-5 3-5 1-8-2 2 9v13l-3 6-5 4-6 4-7 8-4 3 1 5 9 14 8 11h7l12 11 8 7 7 6 7 8 9 10 9 13 8 15 7 21 12 49 12 50 13 54v5l-5 2 5 24 4 25 1 8v34l-1 11 11 1 6 5v8l-6 14-14 24-12 21-12 20-19 32-16 26-16 27-13 21-9 15-8 16-2 12 1 13 4 11 6 8 6 5 11 4 65 1 6 5 1 8-4 5-2 1h-210l-5-1-2 1h-93l-2-1 1-5 8-6 18-10 12-9 7-8 1-9-3-17-6-21-9-4-8-6-7-8-15-28-18-34-15-29-14-28-10-24-4-16-2-22h-115l4 15 11 52 13 61 20 94 7 31 4 11 5 6 2 1 86 1 7 3 6 8v2h-245l1-6 6-7 26-1h58l9-2 3-5v-12l-9-44-18-84-14-65-13-61-11-50-12-57-4-16-43-1-6-4-4-7h-19l-5-3-1-1v-7l4-4h100v-45l1-1h58l1 1 1 45 5-1h23l11 1-4-9 1-9 16-45 1-5h-157l-4-15-25-118-13-60-4-18v-4l15 1 75 10 111 15 18 2 25 1 173-2-4-4-6-4 1-5 3-5-1-8-1-6 2-2 1 4h2v-10l3-16 3-5 2-9 7-9 10-5h16l14-7 7-1 8 3 5 4 3 5 2 1 1-8 3-2 8-1 2-4 6-7zm-242 290-2 1-17 52v6l4 4 51 1 2 4 35-1-4-18v-9l4-16 7-17 2-6-6-1zm-111 83-5 7v2l-58 1 1 10 7 35 1 2h228l19-6 43-12 14-6 2-2-1-6-5-14-1-1-52-1-5-4-3-5zm201 152-19 1 3 10 15 43 17 49 18 52 1 12-2 8-4 7 1 7 5 26 2 9 5-5 11-18 11-17 3-4-2-5-7-14-16-49-13-43-14-46-6-20-2-3zm115 14v10l7 52 2 8 4-2 9-16 9-14 6-12v-15l-6-8-4-2-12-1z" fill="#575A13"/>
<path transform="translate(1129,503)" d="m0 0h79l93 2 12 1 3 9 6 32 2 16v34l-1 11 11 1 6 5v8l-6 14-14 24-12 21-12 20-19 32-16 26-16 27-13 21-9 15-8 16-2 12 1 13 4 11 6 8 6 5 11 4 65 1 6 5 1 8-4 5-2 1h-210l-5-1-2 1h-93l-2-1 1-5 8-6 18-10 12-9 7-8 1-9-3-17-6-21-9-4-8-6-7-8-15-28-18-34-15-29-14-28-10-24-4-16-2-22 2-13 4-13 7-13 12-13 8-6 13-6 40-13 4-2 14-3 26-8 36-10 12-6 5-4 8-6zm-70 138-19 1 3 10 15 43 17 49 18 52 1 12-2 8-4 7 1 7 5 26 2 9 5-5 11-18 11-17 3-4-2-5-7-14-16-49-13-43-14-46-6-20-2-3zm115 14v10l7 52 2 8 4-2 9-16 9-14 6-12v-15l-6-8-4-2-12-1z" fill="#061943"/>
<path transform="translate(1211,116)" d="m0 0 9 1 8 4h12l4 2 3 6v14l3 14-3 5-12 6-4 8-5 3-5 1-8-2 2 9v13l-3 6-5 4-6 4-7 8-4 3 1 5 9 14 8 11 2 2-25 7-16 3-10 3h-5l1-7v-11l-2-6v-9l2-4-11 4h-22l15 3 3 4v2l-7-1-11-1-1 1v6l1-4h8l5 3v2l-6 5-6 3 7-3 9-3h3l-1 4-8 11 1 1 12-16v-8l4 4 1 4v9l-3 7-4 4-8 4-6 5-9 13-2 4-3 12-17 47-14 41-4 15-5 12v3l10-24 15 2 28 5 11 6 10 8 1 4-6 11-9 16-4 6h-2l-2 4-3 5-6 3-10 7-8 4-13 1h-14l-12-1-11-7-6-5-30-1v-1h27l-4-13-1-5v-9l4-16 7-17 3-6h-6v-1l6-1 1-2h-89l-3-7-4-15-8-39-9-37-5-21-8-37-5-22v-2h79l-36-1-25-1v-1l173-2-4-4-6-4 1-5 3-5-1-8-1-6 2-2 1 4h2v-10l3-16 3-5 2-9 7-9 10-5h16l14-7 7-1 8 3 5 4 3 5 2 1 1-8 3-2 8-1 2-4 6-7z" fill="#8C8885"/>
<path transform="translate(1153,233)" d="m0 0h2l-1 4v9l2 6v11l-2 7 23-6 12-2 23-7 4 1 11 10 8 7 7 6 7 8 9 10 9 13 8 15 7 21 12 49 12 50 13 54v5l-5 2-66-1-40-1h-79l-10 10-9 5-6-15-1-4-52-1-6-5v-5l62-1 13 1 2 2 1 6 2-1v-24l5-8h2l2-5 8-13 7-12 1-6-10-8-11-6-40-7-3-1-3 11-8 16-1-4 5-11 4-14 12-36 9-26 13-36 2-8 7-11 7-8 8-5 5-2 3-5 1-4v-9l-3-7v7l-9 12-5 6-1-3 9-12 1-3-12 4-7 3-1-2 9-4 2-3h2l-3-3-10-2-1 6h-1v-8l2-2 11 1 7 2-3-5-15-3-1-2h23z" fill="#565911"/>
<path transform="translate(699,193)" d="m0 0 18 2 57 8 32 5 37 4 21 3 54 8 9 37 8 35 7 31 9 37 8 39-1 1h-213l-3-3-3-12-5-21-2-12-6-27-9-43-5-21-5-25-4-17-4-22z" fill="#8B8885"/>
<path transform="translate(1322,603)" d="m0 0h1v5l11 1 6 5v8l-6 14-14 24-12 21-12 20-19 32-16 26-16 27-13 21-9 15-8 16-2 12 1 13 4 11 6 8 6 5 11 4 65 1 6 5 1 8-4 5-2 1h-210l-5-1-2 1h-93l-2-1 1-5 8-6 18-10 12-9 7-8 1-9-3-17-6-21-3-2h58l5 21 3 19h2l13-21 11-17 3-4v-4l5-5 14-22 13-21 16-25 8-13 2-6 4-4 8-14 9-14 6-12v-15l-5-7-4-2-27-2-1 3v-3l-69-1-9-3-4-5 1-5 3-1h90l16-2 13-5 20-13 13-8 7-3 6-1 62-1z" fill="#8C8986"/>
<path transform="translate(695,191)" d="m0 0 15 1 75 10 111 15 18 2 50 2 55 1v1l-19 1h-77l-2-1 4 15 9 40 4 19 12 50 4 20 6 26 3 9 89 1-1 3-84 1-2 9-14 43v8l3 1 51 1 2 4 38 1 12 9 5 3 12 1h14l13-1 8-4 13-9h3l1 23-3 1-3-7-13-1h-62l-1 3-1-2h-185l-2 2-6-1h-141l-2 2-2-4h-19l-5-3-1-1v-7l4-4h100v-45l1-1h58l1 1 1 45 5-1h23l11 1-4-9 1-9 16-45 1-5h-157l-4-15-25-118-13-60-4-18zm4 2v7l7 36 5 21 3 14 8 38 6 28 5 22 2 11 6 28 2 4 2 1h213l1-2-9-43-8-32-8-35-13-57-3-11-54-8-37-5-27-3-61-9-36-5z" fill="#8F8A86"/>
<path transform="translate(1115,236)" d="m0 0 6 2 5 3-4 1-1 9 1-4h8l5 3v2l-6 5-6 3 7-3 9-3h3l-1 4-8 11 1 1 12-16v-8l4 4 1 4v9l-3 7-4 4-8 4-6 5-9 13-2 4-3 12-17 47-14 41-4 15-5 12v3l10-24 15 2 28 5 11 6 10 8 1 4-6 11-9 16-4 6h-2l-2 4-3 5-6 3-10 7-8 4-13 1h-14l-12-1-11-7-6-5-30-1v-1h27l-4-13-1-5v-9l4-16 7-17 3-6h-6v-1l8-2 11-23 12-25 23-47 8-20 3-8 1-8 1-24 2-11z" fill="#D5A090"/>
<path transform="translate(1211,116)" d="m0 0 9 1 8 4h12l4 2 3 6v14l3 14-3 5-12 6-4 8-5 3-5 1-8-2 2 9v13l-3 6-5 4-6 4-7 8-4 3-11 1-8-2-7-6-2-3 1-5 5-7 1-3v-12l-3-6-4-3-5-1h-10v13h-6l-5-2h-6l-15 6-3 1 1 7 1 5-3-3-6-13-1-6 2-2 1 4h2v-10l3-16 3-5 2-9 7-9 10-5h16l14-7 7-1 8 3 5 4 3 5 2 1 1-8 3-2 8-1 2-4 6-7z" fill="#232325"/>
<path transform="translate(695,191)" d="m0 0 15 1 75 10 111 15 18 2 50 2 55 1v1l-19 1h-77l-2-1 4 15 9 40 4 19 12 50 4 20 6 26 3 9 89 1-1 3-84 1-2 9-14 43v8l3 1 51 1v4l-2 1-20 1h-30l-60-1-9-3-3-3-1-9 17-48 1-5h-157l-4-15-25-118-13-60-4-18zm4 2v7l7 36 5 21 3 14 8 38 6 28 5 22 2 11 6 28 2 4 2 1h213l1-2-9-43-8-32-8-35-13-57-3-11-54-8-37-5-27-3-61-9-36-5z" fill="#575913"/>
<path transform="translate(1030,823)" d="m0 0h58l5 21 3 19 1 3-5 16-1 11 2 7 5 9-1 2-5-1-2 1h-93l-2-1 1-5 8-6 18-10 12-9 7-8 1-9-3-17-6-21z" fill="#D8A191"/>
<path transform="translate(1150,177)" d="m0 0h7l6 2 5 4 2 5v12l-4 8-3 3 1 5 4 5 5 3 12 1h4l6 12 11 15 4 5-25 7-16 3-10 3h-5l1-7v-11l-2-6v-9l2-4-11 4h-19v-2l-9-1-3-8-1-7-2-1h2l-4-4-6-4 1-5 3-5 2-4 5 11-2-7 1-5 16-6 2-1 9 1 8 2v-13z" fill="#D39F90"/>
<path transform="translate(785,428)" d="m0 0h58l1 1v43l-1 2h-54l-5-1v-44z" fill="#061944"/>
<path transform="translate(695,191)" d="m0 0 15 1 75 10 111 15 18 2 50 2 55 1v1l-19 1h-77l-2-1 4 15 9 40 4 19 12 50 4 20 6 26 3 9 89 1-1 3-82 1-4 1-6-2h-49l-11 1-158-1-4-15-25-118-13-60-4-18zm4 2v7l7 36 5 21 3 14 8 38 6 28 5 22 2 11 6 28 2 4 2 1h213l1-2-9-43-8-32-8-35-13-57-3-11-54-8-37-5-27-3-61-9-36-5z" fill="#393833"/>
<path transform="translate(1221,627)" d="m0 0 2 1-11 7-11 4-16 2h-90l-3 1 1 6 6 4 5 1 67 1 2 1 2 10 3 23v5l-5-5-15-5-10-5-17-7-28-13-10-5-5-8 1-5 2-1 99-1 12-2 11-4z" fill="#232324"/>
<path transform="translate(731,229)" d="m0 0h16l44 5 61 8 6 2 1 3v7l-2-1v-2l-70-8-52-6 2 10 6 31 6 28v7l-2-2-9-39-5-24-2-11z" fill="#282821"/>
<path transform="translate(785,428)" d="m0 0h58l1 1v43l-1 2h-54l-5-1v-44zm0 1v43h39l3-2-1-32 1-9z" fill="#222224"/>
<path transform="translate(956,385)" d="m0 0h2l5 17 89 1-1 3-82 1-4 1-6-2h-49l-11 1-158-1-1-2v-6h2l1 4h215l-2-10z" fill="#222224"/>
<path transform="translate(900,219)" d="m0 0h14l50 2 55 1v1l-19 1h-77l-2-1 4 15 9 40 4 19 12 50 4 20 3 14-1 5h-1l-7-31-8-34-7-30-13-57-2-11-13-1-5-1z" fill="#363428"/>
<path transform="translate(1153,233)" d="m0 0h2l-1 4v9l2 6v11l-2 7 23-6 4 1-14 4-14 3-1-5-5 7-10 5-6 5-9 13-3 6-1-3 6-10 8-10 9-6 5-2 3-5 1-4v-9l-3-7v7l-9 12-5 6-1-3 9-12 1-3-12 4-7 3-1-2 9-4 2-3h2l-3-3-10-2-1 6h-1v-8l2-2 11 1 7 2-3-5-15-3-1-2h23z" fill="#8C8986"/>
<path transform="translate(1129,503)" d="m0 0h79l93 2 12 1 3 9v4l-10-3-14-4-10-2-16-2-4-1-21-1-85-1-27-1z" fill="#232324"/>
<path transform="translate(1116,151)" d="m0 0h1l2 12 8 16 3 5-1 4-15 6-5-1-2-1-1 3-2-9 2-2 1 4h2v-10l3-16 3-5z" fill="#CF9F91"/>
<path transform="translate(961,273)" d="m0 0h1l2 13 9 39 5 25 5 20 52-1 1-3h2l-1 5-2 2-4 1h-45l-6-3-3-10-5-24-8-36-4-16v-11z" fill="#32331D"/>
<path transform="translate(715,276)" d="m0 0 2 3 5 25 7 33 5 22 2 11 5 24-1 6-2-4-24-114z" fill="#3A392F"/>
<path transform="translate(995,271)" d="m0 0h19l3 2 9 36 6 25 3 14v9l-2-2-15-62-4-16-3-3-20-1z" fill="#2F301F"/>
<path transform="translate(1122,473)" d="m0 0h3l1 23-3 1-3-7-21-2 2-2 8-4z" fill="#928C89"/>
<path transform="translate(934,291)" d="m0 0h2l4 14 10 42 4 20 3 14-1 5h-1l-7-31-8-34-6-26z" fill="#30311E"/>
<path transform="translate(695,191)" d="m0 0h7l2 2h-5l6 33 7 31 3 14v7h-2l-18-83z" fill="#3A3937"/>
<path transform="translate(1e3 554)" d="m0 0 3 1-11 4-23 8-11 7-5 5h-2l-2 4-7 9-6 14-4 13-1 10-2-3 2-13 4-13 7-13 12-13 8-6 13-6z" fill="#222224"/>
<path transform="translate(1127,181)" d="m0 0 3 3-1 4-15 6-5-1-2-1-1 3-2-9 2-2 1 4h2v-5l2-1h6v2l6 1 4 2z" fill="#BC968A"/>
<path transform="translate(1153,233)" d="m0 0h2l-1 4-2 4 2 11h-2l-6-12-3-1v7l-2 1h-6v-1h5l-3-5-15-3-1-2h23z" fill="#424418"/>
<path transform="translate(772,307)" d="m0 0h39l19 1 3 2-8 1-42-1-10-1z" fill="#3C3E1A"/>
<path transform="translate(785,283)" d="m0 0h21l31 2 5 2v1h-15l-10-1-22-1-10-1z" fill="#464816"/>
<path transform="translate(1030,823)" d="m0 0h58v3h-54z" fill="#8C8986"/>
<path transform="translate(961,273)" d="m0 0h1l2 13 7 30v8h-2l-7-30-2-9v-11z" fill="#30311E"/>
<path transform="translate(795,295)" d="m0 0h19l24 2 2 2h-24l-20-1-3-2z" fill="#565911"/>
<path transform="translate(1138,416)" d="m0 0h8l11 2-2 5-4 4-9-5-4-3z" fill="#262722"/>
<path transform="translate(758,269)" d="m0 0h16l26 2 5 1-2 2-27-1-13-1-5-2z" fill="#404218"/>
<path transform="translate(856,212)" d="m0 0 48 6-4 1-1 2-43-6z" fill="#423C38"/>
<path transform="translate(753,256)" d="m0 0 19 1 24 2 4 1v2h-10l-23-2-13-2z" fill="#3C3E1A"/>
<path transform="translate(730,354)" d="m0 0 3 1 3 15 5 24-1 6-2-4-8-38z" fill="#403F31"/>
<path transform="translate(704,192)" d="m0 0 14 1 23 3 5 2v1l-15-1-28-4z" fill="#38382F"/>
<path transform="translate(952,579)" d="m0 0v3l-6 7-7 14-5 16-1 10-2-3 2-13 4-13 7-13z" fill="#232325"/>
<path transform="translate(741,272)" d="m0 0h1l7 34v7l-2-2-8-35z" fill="#444617"/>
<path transform="translate(971,321)" d="m0 0 2 4 5 25 1 8-2 3-5-24-2-9z" fill="#555811"/>
<path transform="translate(695,191)" d="m0 0h7l2 2h-5l4 22-1 3h-2l-5-23z" fill="#363431"/>
<path transform="translate(949,347)" d="m0 0h1l4 20 3 14-1 5h-1l-7-31z" fill="#565911"/>
<path transform="translate(1130,184)" d="m0 0 5 4-9 3-14 5 1 7 1 5-3-3-4-9v-4l7 1 15-6z" fill="#4A4D15"/>
<path transform="translate(1121,236)" d="m0 0 22 2v8l-2 1h-6v-1h5l-3-5-15-3z" fill="#32331D"/>
<path transform="translate(825,209)" d="m0 0h11l20 3 1 2h-10l-20-3z" fill="#313130"/>
<path transform="translate(715,276)" d="m0 0 2 3 5 26-3-1-5-22z" fill="#39392B"/>
<path transform="translate(1142,249)" d="m0 0 4 1 1 4-9 12-5 6-1-3 11-15z" fill="#565911"/>
<path transform="translate(1036,366)" d="m0 0h2l-1 5-2 1-51-1v-1l51-1z" fill="#565911"/>
<path transform="translate(701,216)" d="m0 0 2 2 5 21v2h-3l-4-18z" fill="#32322B"/>
<path transform="translate(811,373)" d="m0 0 26 1v1l-19 1h-9l-6-1v-1z" fill="#565911"/>
<path transform="translate(930,272)" d="m0 0h2l4 16v3h-3l-3-13z" fill="#3D3F19"/>
<path transform="translate(1137,276)" d="m0 0v3l-6 5-9 13-3 6-1-3 6-10 8-10z" fill="#8C8986"/>
<path transform="translate(1031,334)" d="m0 0h1l3 14v9l-2-2-3-13z" fill="#565911"/>
<path transform="translate(1111,182)" d="m0 0h6v2l5 1v2h-12z" fill="#6F6E5C"/>
<path transform="translate(1122,243)" d="m0 0 11 1 2 2-12 1-2 6h-1v-8z" fill="#4A4D15"/>
<path transform="translate(995,271)" d="m0 0h19l-1 3-22-1z" fill="#565911"/>
<path transform="translate(758,269)" d="m0 0h16l1 2-2 1h-10l-5-2z" fill="#565911"/>
<path transform="translate(727,338)" d="m0 0h2l2 8 1 11-3-4-2-9z" fill="#34332E"/>
<path transform="translate(706,241)" d="m0 0h2l4 17-3 1-3-13z" fill="#3B3B31"/>
<path transform="translate(1127,181)" d="m0 0 3 3-1 4-7 3-3-1 1-2-2-1h4l1-2 4 2z" fill="#8C8986"/>
<path transform="translate(1070,870)" d="m0 0 4 1-1 3-5 4h-6v-2l7-4z" fill="#898680"/>
<path transform="translate(956,385)" d="m0 0h2l3 11v3h-2l-1 2-2-9z" fill="#33341D"/>
<path transform="translate(736,383)" d="m0 0h3l2 11-1 6-2-4z" fill="#484736"/>
<path transform="translate(945,337)" d="m0 0h2l2 5v9h-2l-2-8z" fill="#2F2F1F"/>
<path transform="translate(968,308)" d="m0 0 2 4 1 4v8h-2l-2-9z" fill="#36381C"/>
<path transform="translate(817,308)" d="m0 0h13l3 2-8 1-7-1z" fill="#565911"/>
<path transform="translate(1136,252)" d="m0 0 3 1-4 3-11 5-2-2z" fill="#565911"/>
<path transform="translate(843,211)" d="m0 0h9l5 2v1h-10l-4-1z" fill="#2F2F2C"/>
<path transform="translate(700,205)" d="m0 0 2 4 1 9h-3l-2-12z" fill="#4E4B38"/>
<path transform="translate(717,291)" d="m0 0h2l3 14-3-1-2-7z" fill="#313127"/>
<path transform="translate(1142,239)" d="m0 0h1v7l-2 1h-6v-1h5l-3-6 5 1z" fill="#565911"/>
<path transform="translate(1142,249)" d="m0 0 4 1 1 4-5 5-1-2 2-5z" fill="#3E4019"/>
<path transform="translate(732,196)" d="m0 0h9l5 2v1l-14-1z" fill="#2C2C2E"/>
<path transform="translate(742,287)" d="m0 0 3 1 1 3v8l-2-1z" fill="#404218"/>
</svg>
