<?xml version="1.0" encoding="UTF-8"?>
<svg version="1.1" viewBox="0 0 2048 1153" width="666" height="375" xmlns="http://www.w3.org/2000/svg">
<path transform="translate(1310,2)" d="m0 0h12l14 7h19l5 4 3 8v20l4 16-1 6-4 6-13 5-4 4-6 11-7 4h-10l-9-2 3 10 1 6v13l-3 10-8 7-10 6-14 15-3 1 2 5 9 16 8 11 9 11 4 1 5-1 11 9 8 8 8 7 17 16 12 13 13 17 9 14 10 19 7 19 15 60 17 72 14 57 11 46v5l-1 1h-8l4 15 7 35 4 31 1 14v27l-3 26h10l10 3 6 7v9l-5 14-12 22-14 24-17 29-17 28-17 29-17 28-19 32-13 21-18 30-14 23-10 16-7 15-4 16v18l4 15 6 12 9 10 10 6 9 3 8 1 89 1 7 6 2 4v9l-3 5-4 4h-305l-2-3h-6v3h-138l-1-8 5-5 13-8 23-13 16-12 7-7 4-8v-12l-4-20-9-32-16-8-10-8-7-8-10-17-13-25-12-22-18-34-15-29-20-40-14-31-6-16-4-16-2-16v-19h-167l3 12 18 85 15 70 14 64 12 57 16 75 5 16 6 10 6 4 4 1 124 1 8 5 6 8 1 6h-355l2-9 4-6 4-4 3-1 127-1 6-3 4-6 1-4v-13l-13-61-14-65-12-57-9-42-10-45-10-48-13-60-16-74-12-56-8-37v-3h-51l-13-1-6-4-4-5-3-7h-31l-5-4-2-4v-6l4-6 3-2h144v-63l1-2 3-1h77l6 2 1 26v35l-1 3 60-1-6-7-2-6 1-10 18-50 8-22 1-2-5 1h-215l-9-1-6-25-15-71-17-78-8-39-8-36-10-47-2-15 3-1 119 16 184 25 23 2h21l252-3-3-5-10-5-2-2 1-5 7-9 1-4-6-15v-3l4 1 4 6 3-30 3-10 4-7 2-12 5-8 5-5 5-4 10-4h23l6-3 11-7 9-2 10 1 7 4 5 5 4 5 2 3 3-9 4-4 10-3 4-2 7-11zm-240 419-112 1-12 38-13 40 1 7 4 4 2 1 75 1v5l1 1h52l-1-5-4-11-2-12v-11l3-18 6-16 10-22v-3zm112 119-1 2 4 8h1v-8l-1-2zm-115 0-267 1-6 10-5 4-48 1h-32l2 14 10 50 2 5 77 1h129l118-1 29-9 31-9 39-11 18-8 2-3-10-26-2-3h-48l-25-1-8-5-3-5-2-5zm-3 222 2 9 18 52 13 37 14 40 17 49 12 35 2 9v10l-2 9-7 13 1 8 10 50 1 2 3-1 8-14 7-10 25-40-2-4-8-14-7-19-12-37-12-39-34-111-10-33-1-1zm193 18-1 3 11 81 3 20h3l14-23 12-19 9-16 4-12v-13l-5-10-8-7-5-2-6-1z" fill="#575A12"/>
<path transform="translate(1194,561)" d="m0 0h30l110 1 33 1 81 1 10 1 3 6 8 38 4 27 2 24v27l-3 26h10l10 3 6 7v9l-5 14-12 22-14 24-17 29-17 28-17 29-17 28-19 32-13 21-18 30-14 23-10 16-7 15-4 16v18l4 15 6 12 9 10 10 6 9 3 8 1 89 1 7 6 2 4v9l-3 5-4 4h-305l-2-3h-6v3h-138l-1-8 5-5 13-8 23-13 16-12 7-7 4-8v-12l-4-20-9-32-16-8-10-8-7-8-10-17-13-25-12-22-18-34-15-29-20-40-14-31-6-16-4-16-2-16v-28l5-19 7-17 9-15 11-12 10-8 12-7 15-6 21-7 30-9 15-5 11-3 27-8 38-11 28-8 18-8 5-5 13-10 10-10zm-130 201 2 9 18 52 13 37 14 40 17 49 12 35 2 9v10l-2 9-7 13 1 8 10 50 1 2 3-1 8-14 7-10 25-40-2-4-8-14-7-19-12-37-12-39-34-111-10-33-1-1zm193 18-1 3 11 81 3 20h3l14-23 12-19 9-16 4-12v-13l-5-10-8-7-5-2-6-1z" fill="#061842"/>
<path transform="translate(1310,2)" d="m0 0h12l14 7h19l5 4 3 8v20l4 16-1 6-4 6-13 5-4 4-6 11-7 4h-10l-9-2 3 10 1 6v13l-3 10-8 7-10 6-14 15-3 1 2 5 9 16 8 11 9 11 1 3-37 11-26 7-15 4h-4l2-9 2-8v-7l-5-14-1-7 6-8 1-3-10 2-13 4h-19l-11-4 4 4 9 3 14 1 3 2 1 4h-28l-1 15h3v-8l1-5 14 1h12l1-1v-9l5-1 5 8 6 14v11l-6 16-5 3-9 3-11 9-11 14-8 15-17 49-28 80-5 14-1 11-11 26-4 10 4-2 10-25 6-13 11 1 43 7 11 3 11 7 14 10 3 3-1 6-14 26-10 15-9 12-6 7-14 10-14 7-6 2-9 1h-38l-13-4-12-7-8-8-2-1-6-16-2-12v-11l3-18 6-16 10-22 3-7-129-1-3-4-7-29-20-87-7-30-15-65-9-40v-4l59-1 189-2 25-1 1-2h-92v-1l93-1-3-5-10-5-2-2 1-5 7-9 1-4-6-15v-3l4 1 4 6 3-30 3-10 4-7 2-12 5-8 5-5 5-4 10-4h23l6-3 11-7 9-2 10 1 7 4 5 5 4 5 2 3 3-9 4-4 10-3 4-2 7-11z" fill="#8D8A86"/>
<path transform="translate(1224,171)" d="m0 0h7l-1 4-5 7 1 7 5 14v7l-5 17 26-7 32-9 27-8 5-1 11 9 8 8 8 7 17 16 12 13 13 17 9 14 10 19 7 19 15 60 17 72 14 57 11 46v5l-1 1-9 1-10-1-81-1-33-1-110-1h-30l-8 7-11 10-9 6-2-3-10-25h-48l-25-1-8-5-3-4v-6h111l4 8 1-30 3-7 10-13 11-18 13-24-1-5-12-9-14-9-16-4-44-7-5-1-3 9-5 11-7 18-2 2h-3l1-5 8-19 5-12 1-11 18-52 10-28 19-55 7-16 7-11 11-13 11-8 10-3 4-8 3-9v-11l-7-16-3-5-4 1v8l-2 2h-12l-14-2-1 13h-3v-15l1-1h27l-1-3-2-1-14-1-11-4-2-4 5 1 6 2h19l13-4z" fill="#575A11"/>
<path transform="translate(570,114)" d="m0 0h8l46 6 53 8 30 4 50 6 74 11 13 2 26 3 15 2 3 2 15 65 14 62 9 38 14 63 5 21 1 7-2 2-90 1h-152l-69-1-3-14-2-12-6-28-5-22-3-13-3-16-3-14-5-23-2-9-5-22-2-10-3-16-6-28-8-36-5-23z" fill="#8D8A86"/>
<path transform="translate(1471,710)" d="m0 0 1 3h10l10 3 6 7v9l-5 14-12 22-14 24-17 29-17 28-17 29-17 28-19 32-13 21-18 30-14 23-10 16-7 15-4 16v18l4 15 6 12 9 10 10 6 9 3 8 1 89 1 7 6 2 4v9l-3 5-4 4h-305l-2-3h-6v3h-138l-1-8 5-5 13-8 23-13 16-12 7-7 4-8v-12l-4-20-9-32-1-2 21-1h59l9 42 3 18 3-3 8-13 11-17 15-24 7-11 10-15 11-18 14-22 16-26 14-22 11-18 5-9 8-13 26-42 5-11 2-7v-13l-5-10-7-6-5-2-6-1-31-1h-3l-100-1-8-3-6-5-2-4v-7l2-1 148-1 16-4 16-8 16-10 14-10 16-9 17-5 88-1z" fill="#8D8A86"/>
<path transform="translate(617,164)" d="m0 0h9l70 8 91 11 12 2 3 7 14 56 8 33 11 44 10 41v10l-3 2h-177l-5-2-2-3-8-38-10-47-9-42-14-67-2-11z" fill="#8D8A86"/>
<path transform="translate(566,109)" d="m0 0 54 7 126 17 116 16 32 3h21l85-1h166l-1 3-25 1-74 1-115 1h-59l17 74 11 49 11 46 11 49 9 37 2 3 127 1 2 1-1 4-9 1h-114l-2 10-18 55-4 13 1 7 3 3 2 1 73 1 2 1 1 5 54 1 9 9 16 8 8 2h38l12-2 9-4 11-6 11-8 3-3-1 27-1-2-3 1h-112l-1 4-2-4h-267v2h-216l-3 1-1-3h-31l-5-4-2-4v-6l4-6 3-2h144v-63l1-2 3-1h77l6 2 1 26v35l-1 3 60-1-6-7-2-6 1-10 18-50 8-22 1-2-5 1h-215l-9-1-6-25-15-71-17-78-8-39-8-36-10-47-2-15zm4 5 2 16 7 32 8 36 5 22 2 13 7 32 4 20 3 12 3 14 6 29 7 32 5 22 3 17 1 5 80 1h143l88-1 2-4-5-23-10-43-9-40-10-43-11-48-13-57-3-2-29-4-19-2-46-7-57-8-52-6-45-7-34-5-25-3z" fill="#8E8A86"/>
<path transform="translate(1175,177)" d="m0 0 16 3 14 1 3 2 1 4h-28l-1 15h3v-8l1-5 14 1h12l1-1v-9l5-1 5 8 6 14v11l-6 16-5 3-9 3-11 9-11 14-8 15-17 49-28 80-5 14-1 11-11 26-4 10 4-2 10-25 6-13 11 1 43 7 11 3 11 7 14 10 3 3-1 6-14 26-10 15-9 12-6 7-14 10-14 7-6 2-9 1h-38l-13-4-12-7-8-8-2-1-6-16-2-12v-11l3-18 6-16 10-22 6-11 8-16 9-20 10-19 13-28 13-27 8-16 13-30 6-18 1-4 2-45 1-10 2-2z" fill="#D6A190"/>
<path transform="translate(1310,2)" d="m0 0h12l14 7h19l5 4 3 8v20l4 16-1 6-4 6-13 5-4 4-6 11-7 4h-10l-9-2 3 10 1 6v13l-3 10-8 7-10 6-14 15-5 2h-17l-12-6-9-10 1-5 7-8 3-7 1-5v-11l-3-9-4-5-10-3h-11l-4 1v16l-2 3-10-2-6-3-7 1-25 11h-2l3 10 1 2v6h-2l-5-10-7-17-2-5v-3l4 1 4 6 3-30 3-10 4-7 2-12 5-8 5-5 5-4 10-4h23l6-3 11-7 9-2 10 1 7 4 5 5 4 5 2 3 3-9 4-4 10-3 4-2 7-11z" fill="#232222"/>
<path transform="translate(566,109)" d="m0 0 54 7 126 17 116 16 32 3h21l85-1h166l-1 3-25 1-74 1-115 1h-59l17 74 11 49 11 46 11 49 9 37 2 3 127 1 2 1-1 4-9 1h-114l-2 10-18 55-4 13 1 7 3 3 2 1 73 1 1 1v5l-2 1-66 1h-42l-57-1-10-4-4-6-1-9 4-13 22-62 2-4-5 1h-215l-9-1-6-25-15-71-17-78-8-39-8-36-10-47-2-15zm4 5 2 16 7 32 8 36 5 22 2 13 7 32 4 20 3 12 3 14 6 29 7 32 5 22 3 17 1 5 80 1h143l88-1 2-4-5-23-10-43-9-40-10-43-11-48-13-57-3-2-29-4-19-2-46-7-57-8-52-6-45-7-34-5-25-3z" fill="#575A12"/>
<path transform="translate(1066,1025)" d="m0 0h67l9 42 3 18 2 1-3 5-6 19-1 6v14l6 12 7 6 3 2v2l2 1h-9l-2-3h-6v3h-138l-1-8 5-5 13-8 23-13 16-12 7-7 4-8v-12l-4-20-9-32-1-2z" fill="#D8A291"/>
<path transform="translate(974,230)" d="m0 0h52l3 8 11 48 13 56 4 18v8l-1 1h-74l-3-5-13-59-10-43-5-24v-7z" fill="#8D8A86"/>
<path transform="translate(1223,90)" d="m0 0h11l10 3 6 8 2 7v11l-3 10-6 8-3 3 1 5 8 9 11 5h18l10 18 10 14 9 11 1 3-37 11-26 7-15 4h-4l2-9 2-8v-7l-5-14-1-7 6-8 1-3-10 2-13 4h-19l-12-5-4-4-4-10-2-8h-7v-1h7l-3-5-10-5-2-2 1-5 7-9 3-2 6 13v2h2l-2-8-2-5v-5l29-13 7 1 11 4h3l1-4v-14z" fill="#D4A190"/>
<path transform="translate(566,109)" d="m0 0 54 7 126 17 116 16 32 3h21l85-1h166l-1 3-25 1-74 1-115 1h-59l17 74 11 49 11 46 11 49 9 37 2 3 127 1 2 1-1 4-9 1h-432l-9-1-6-25-15-71-17-78-8-39-8-36-10-47-2-15zm4 5 2 16 7 32 8 36 5 22 2 13 7 32 4 20 3 12 3 14 6 29 7 32 5 22 3 17 1 5 80 1h143l88-1 2-4-5-23-10-43-9-40-10-43-11-48-13-57-3-2-29-4-19-2-46-7-57-8-52-6-45-7-34-5-25-3z" fill="#373328"/>
<path transform="translate(697,453)" d="m0 0h77l6 2 1 26v35l-1 3-2 1h-73l-9-1-3-3v-60l1-2z" fill="#061842"/>
<path transform="translate(617,164)" d="m0 0h9l70 8 91 11 12 2 3 7 14 56 8 33 11 44 10 41v10l-3 2h-177l-5-2-2-3-8-38-10-47-9-42-14-67-2-11zm6 12-1 5 20 98 11 52 7 36 2 5 2 1h177l1-1-1-9-29-116-9-37-4-14-1-1-49-5-85-10z" fill="#2C2C1E"/>
<path transform="translate(1303,754)" d="m0 0 3 1-12 4-6 1-150 1 2 9 4 5 6 3 4 1 100 1 3 3 6 44v6l-8-4-31-12-30-13-25-11-26-13-9-6-5-2-2-2 1-5h2l2-4 5-3h143l17-2z" fill="#242321"/>
<path transform="translate(981,225)" d="m0 0h47l3 5 7 29 15 63 9 40v8l-5 4h-75l-4-2-4-11-16-71-11-50v-11l5-3zm-7 5-23 1v7l9 41 14 62 6 26 2 2h74l1-1v-8l-12-53-13-55-5-21-1-1z" fill="#2B2B1E"/>
<path transform="translate(697,453)" d="m0 0h77l6 2 1 26v35l-1 3-2 1h-73l-9-1-2-2h51l10-1v-26l1-27 2-9h-61z" fill="#2A2927"/>
<path transform="translate(1194,561)" d="m0 0h30l110 1 33 1 81 1 10 1 3 6 3 14v4l-30-5-31-7-10-5-9-3-21-3-87-2h-83l-12 12-12 9-3 1v-2l11-8 10-9z" fill="#222122"/>
<path transform="translate(1174,53)" d="m0 0h1l1 11 5 15 5 12 6 9-5 4-5-2v-2l-3-1h-10l-3 1-1 3h14l2 3-8 5-5 2-4-1-3-2 1-3 1 1 3-30 3-10 4-7z" fill="#D09F8F"/>
<path transform="translate(1284,390)" d="m0 0 2 1-2 6-11 17-10 16-8 12-1 1-12-1-6-1-3 1-7 12-5-3-17-12-9-6 4-1 26 4h12l6 1h9l6-8 10-15 12-19z" fill="#232221"/>
<path transform="translate(1224,171)" d="m0 0h7l-1 4-5 7 1 7 5 14v7l-4 14-3 4h-2l1-7 3-9v-11l-7-16-3-5-4 1v8l-2 2h-12l-14-2-1 13h-3v-15l1-1h27l-1-3-2-1-14-1-11-4-2-4 5 1 6 2h19l13-4z" fill="#2D2C1E"/>
<path transform="translate(648,221)" d="m0 0 23 1 64 4 23 2 6 2v3h-17l-35-2-30-3-28-2-6-1-1-3z" fill="#2E2E1D"/>
<path transform="translate(665,276)" d="m0 0h31l69 2 7 1v4l-5 1-58-2-42-2-2-1z" fill="#2F2F1D"/>
<path transform="translate(697,259)" d="m0 0 68 3 17 1 4 2v2l-2 1h-20l-56-3-11-1-2-1v-3z" fill="#31311D"/>
<path transform="translate(1183,85)" d="m0 0 3 3 8 11-1 4-5 4 1 2-20 9h-2l3 10 1 2v6h-2l-5-10-7-17-2-5v-3l4 1 2 3 1 5 3 2 5-1 8-4 2-2-1-1-14-1 1-4 3-1h10l3 2v2l5 1 4-4-7-10z" fill="#353325"/>
<path transform="translate(692,242)" d="m0 0h21l62 4 4 2-2 3h-12l-46-3-21-1-6-2z" fill="#2F2F1D"/>
<path transform="translate(669,293)" d="m0 0 57 1 19 1 2 1-1 4h-16l-35-1-20-1-6-1-1-3z" fill="#33341C"/>
<path transform="translate(646,204)" d="m0 0h11l31 3 25 2 4 2v3h-15l-54-5-2-1z" fill="#2F301D"/>
<path transform="translate(723,629)" d="m0 0 2 2 6 33 6 39 4 24v6l-2 1-4-15-9-57-3-22z" fill="#222122"/>
<path transform="translate(1211,193)" d="m0 0 5 1v2h2v6l-8 11-13 16h-3l2-5 10-13 7-10 1-4-16 8-6 4-6 3h-3l2-4 19-11z" fill="#2D2D1E"/>
<path transform="translate(1269,876)" d="m0 0h1l1 11-6 11-15 24-12 19-13 21-24 38-10 16-4 2 7-11 11-18 13-21 12-19 11-17 13-21 12-20 2-3z" fill="#282720"/>
<path transform="translate(1183,85)" d="m0 0 3 3 8 11-1 4-14 7-10 4h-6l-1-3 6 1 10-5 2-2-1-1-14-1 1-4 3-1h10l3 2v2l5 1 4-4-7-10z" fill="#8D8A86"/>
<path transform="translate(1066,1025)" d="m0 0h67l-1 3h-78l-1-2z" fill="#8E8A86"/>
<path transform="translate(1013,634)" d="m0 0 4 1-14 5-17 5-19 7-15 8-12 9-10 11-6 9-1-2 9-13 10-10 14-9 14-7 27-9z" fill="#222122"/>
<path transform="translate(1128,421)" d="m0 0h3l-1 5-7 16-7 18-2 2h-3l1-5 8-19 5-12h2z" fill="#34341C"/>
<path transform="translate(664,556)" d="m0 0h39l2 1v2l-8 1h-31l-7-1-1-2z" fill="#222122"/>
<path transform="translate(1108,1091)" d="m0 0 5 1-1 3h-2l-2 6-4 4-3 1h-9l-1-5 11-3 4-4z" fill="#8D8A86"/>
<path transform="translate(1164,100)" d="m0 0 1 3h14l2 3-8 5-5 2-4-1-3-2 1-3 1 1z" fill="#D6A190"/>
<path transform="translate(1181,186)" d="m0 0 27 1v1h-11v2h-8l-5-1-1 13h-3v-15z" fill="#37371B"/>
<path transform="translate(653,331)" d="m0 0h1l5 26v5h-2l-1 3-5-25 1-4z" fill="#3B3C19"/>
<path transform="translate(1269,876)" d="m0 0h1l1 11-6 11-15 24-4 5 1-5 10-16 11-18z" fill="#2D2C24"/>
<path transform="translate(1212,179)" d="m0 0 5 1v3h-2l-2 9 4 1 2 2v6h-1v-5h-2l-1-2-6 1-3 1v-3l-8-1v-1l12-1 1-1v-9z" fill="#8D8A86"/>
<path transform="translate(1223,90)" d="m0 0h11l10 3 3 3-1 2-3-3-6-2h-15l-2 1v15l-2 3-9-1-4-2 2-1 10 2 1-4v-14z" fill="#8D8A86"/>
<path transform="translate(1192,181)" d="m0 0h13l3 2 1 4h-19l-9-1v-1h23v-2l-12-1z" fill="#8D8A86"/>
<path transform="translate(1169,98)" d="m0 0h10l4 4-3 1-14-1v-3z" fill="#32331C"/>
<path transform="translate(1109,1092)" d="m0 0h2l-1 5-5 5-3 2h-7l1-2 9-4z" fill="#4D4F14"/>
<path transform="translate(656,346)" d="m0 0h1l2 11v5h-2l-1 3-2-10v-5z" fill="#414217"/>
<path transform="translate(747,228)" d="m0 0h11l6 2v3h-17v-1l14-1-14-2z" fill="#575A11"/>
<path transform="translate(1228,953)" d="m0 0 1 2-9 15-2-2 9-14z" fill="#2B2B1F"/>
<path transform="translate(1187,105)" d="m0 0 2 1v3l-8 4-3-1 2-1-1-2z" fill="#484A15"/>
</svg>
